name rise37.2698peak67.6939fall79.5734.mot
datacolumns 19
datarows 12
range 22.32158300000000 22.33991400000000
endheader
time	ground_force1_vx	ground_force1_vy	ground_force1_vz	ground_force1_px	ground_force1_py	ground_force1_pz	ground_force2_vx	ground_force2_vy	ground_force2_vz	ground_force2_px	ground_force2_py	ground_force2_pz	ground_torque1_x	ground_torque1_y	ground_torque1_z	ground_torque2_x	ground_torque2_y	ground_torque2_z	
22.32158300000000	60.51684400000000	764.09998299999995	57.36726500000000	0.38909000000000	0.00000000000000	0.11469100000000	0.00000000000000	0.00000000000000	0.00000000000000	0.00000000000000	0.00000000000000	0.00000000000000	0.00000000000000	29.62273000000000	0.00000000000000	0.00000000000000	0.00000000000000	0.00000000000000	
22.32324800000000	59.97368200000000	766.51555499999995	57.48824900000000	0.38810700000000	0.00000000000000	0.11466400000000	0.00000000000000	0.00000000000000	0.00000000000000	0.00000000000000	0.00000000000000	0.00000000000000	0.00000000000000	29.70468100000000	0.00000000000000	0.00000000000000	0.00000000000000	0.00000000000000	
22.32491300000000	59.43595700000000	768.82455700000003	57.60816900000000	0.38714900000000	0.00000000000000	0.11463500000000	0.00000000000000	0.00000000000000	0.00000000000000	0.00000000000000	0.00000000000000	0.00000000000000	0.00000000000000	29.78757000000000	0.00000000000000	0.00000000000000	0.00000000000000	0.00000000000000	
22.32658800000000	58.90408500000000	771.02542600000004	57.72649900000000	0.38621400000000	0.00000000000000	0.11460500000000	0.00000000000000	0.00000000000000	0.00000000000000	0.00000000000000	0.00000000000000	0.00000000000000	0.00000000000000	29.87099300000000	0.00000000000000	0.00000000000000	0.00000000000000	0.00000000000000	
22.32825400000000	58.37841700000000	773.11668999999995	57.84266100000000	0.38530300000000	0.00000000000000	0.11457400000000	0.00000000000000	0.00000000000000	0.00000000000000	0.00000000000000	0.00000000000000	0.00000000000000	0.00000000000000	29.95450800000000	0.00000000000000	0.00000000000000	0.00000000000000	0.00000000000000	
22.32991700000000	57.85924100000000	775.09698400000002	57.95603300000000	0.38441500000000	0.00000000000000	0.11454200000000	0.00000000000000	0.00000000000000	0.00000000000000	0.00000000000000	0.00000000000000	0.00000000000000	0.00000000000000	30.03764000000000	0.00000000000000	0.00000000000000	0.00000000000000	0.00000000000000	
22.33158700000000	57.34679000000000	776.96506199999999	58.06595300000000	0.38355100000000	0.00000000000000	0.11450800000000	0.00000000000000	0.00000000000000	0.00000000000000	0.00000000000000	0.00000000000000	0.00000000000000	0.00000000000000	30.11988800000000	0.00000000000000	0.00000000000000	0.00000000000000	0.00000000000000	
22.33325300000000	56.84123800000000	778.71980099999996	58.17172500000000	0.38270900000000	0.00000000000000	0.11447200000000	0.00000000000000	0.00000000000000	0.00000000000000	0.00000000000000	0.00000000000000	0.00000000000000	0.00000000000000	30.20072400000000	0.00000000000000	0.00000000000000	0.00000000000000	0.00000000000000	
22.33491300000000	56.34270800000000	780.36022000000003	58.27263100000000	0.38188900000000	0.00000000000000	0.11443500000000	0.00000000000000	0.00000000000000	0.00000000000000	0.00000000000000	0.00000000000000	0.00000000000000	0.00000000000000	30.27960100000000	0.00000000000000	0.00000000000000	0.00000000000000	0.00000000000000	
22.33658700000000	55.85127500000000	781.88548400000002	58.36793100000000	0.38109000000000	0.00000000000000	0.11439600000000	0.00000000000000	0.00000000000000	0.00000000000000	0.00000000000000	0.00000000000000	0.00000000000000	0.00000000000000	30.35596100000000	0.00000000000000	0.00000000000000	0.00000000000000	0.00000000000000	
22.33825400000000	55.36696400000000	783.29491299999995	58.45687500000000	0.38031100000000	0.00000000000000	0.11435500000000	0.00000000000000	0.00000000000000	0.00000000000000	0.00000000000000	0.00000000000000	0.00000000000000	0.00000000000000	30.42923300000000	0.00000000000000	0.00000000000000	0.00000000000000	0.00000000000000	
22.33991400000000	54.88976000000000	784.58798999999999	58.53870700000000	0.37955300000000	0.00000000000000	0.11431200000000	0.00000000000000	0.00000000000000	0.00000000000000	0.00000000000000	0.00000000000000	0.00000000000000	0.00000000000000	30.49884200000000	0.00000000000000	0.00000000000000	0.00000000000000	0.00000000000000	
